# xmcd
#
# Track frame offsets:
#	150
#	13675
#	28732
#	48407
#	67529
#	86287
#	95786
#	114409
#	129178
#	149515
#	161964
#	179386
#	198975
#	214479
#	236066
#
# Disc length: 3399 seconds
#
# Revision: 0
# Processed by: cddbd v1.5.1PL2 Copyright (c) Steve Scherf et al.
# Submitted via: audiograbber 1.83.01
#
DISCID=d10d450f
DTITLE=diverse Interpreten - 70ties
DYEAR=1900
DGENRE=
TTITLE0=Ike and Tina Turner
TTITLE1=Al Stewart
TTITLE2=Peter Gabriel
TTITLE3=Lou Reed
TTITLE4=America
TTITLE5=Bill Withers
TTITLE6=Gary Rafferty
TTITLE7=Santana
TTITLE8=10 CC
TTITLE9=Nilsson
TTITLE10=Genesis
TTITLE11=The Boomtown Rats
TTITLE12=Harold Melvin and The Blue Notes
TTITLE13=The Doobie Brothers
TTITLE14=The Alan Parsons Project
EXTD=
EXTT0=
EXTT1=
EXTT2=
EXTT3=
EXTT4=
EXTT5=
EXTT6=
EXTT7=
EXTT8=
EXTT9=
EXTT10=
EXTT11=
EXTT12=
EXTT13=
EXTT14=
PLAYORDER=
